{"title":"Intruders 2011 DVDSCR READNFO XviD-SiC","uid":7128577,"size":925335344,"categoryP":"video","categoryS":"movies","magnet":"?xt=urn:btih:30cb5ccad1b4457be4a8af36c8bf4d0b983cd3a4&amp;dn=Intruders+2011+DVDSCR+READNFO+XviD-SiC&amp;tr=udp%3A%2F%2Ftracker.openbittorrent.com%3A80&amp;tr=udp%3A%2F%2Fopen.demonii.com%3A1337&amp;tr=udp%3A%2F%2Ftracker.coppersurfer.tk%3A6969&amp;tr=udp%3A%2F%2Fexodus.desync.com%3A6969","seeders":1,"leechers":0,"uploader":"HeroMaster","files":-1,"time":1332616334,"description":"Intruders 2011 DVDSCR READNFO XviD-SiC\n\nIMDB Link: &lt;a href=&quot;\nhttp://www.imdb.com/title/tt1634121/&quot; rel=&quot;nofollow&quot; target=&quot;_NEW&quot;&gt;\nhttp://www.imdb.com/title/tt1634121/&lt;/a&gt;\n\nDescription:\nTwo children living in different countries are visited nightly by a faceless being who wants to take possession of them. \n\nGeneral\nComplete name                    : Intruders.2011.SCREENER.READNFO.XviD-SiC.avi\nFormat                           : AVI\nFormat/Info                      : Audio Video Interleave\nFormat profile                   : OpenDML\nFormat settings                  : rec\nFile size                        : 869 MiB\nDuration                         : 1h 41mn\nOverall bit rate                 : 1 202 Kbps\nWriting application              : AVI-Mux GUI 1.17.8, Aug 30 2008  12:36:58\n\nVideo\nID                               : 0\nFormat                           : MPEG-4 Visual\nFormat profile                   : Advanced Simple@L5\nFormat settings, BVOP            : 1\nFormat settings, QPel            : No\nFormat settings, GMC             : No warppoints\nFormat settings, Matrix          : Default (H.263)\nMuxing mode                      : Packed bitstream\nCodec ID                         : XVID\nCodec ID/Hint                    : XviD\nDuration                         : 1h 41mn\nBit rate                         : 1 006 Kbps\nWidth                            : 640 pixels\nHeight                           : 272 pixels\nDisplay aspect ratio             : 2.35:1\nFrame rate                       : 29.970 fps\nColor space                      : YUV\nChroma subsampling               : 4:2:0\nBit depth                        : 8 bits\nScan type                        : Progressive\nCompression mode                 : Lossy\nBits/(Pixel*Frame)               : 0.193\nStream size                      : 727 MiB (84%)\nWriting library                  : XviD 64\n\nAudio\nID                               : 1\nFormat                           : MPEG Audio\nFormat version                   : Version 1\nFormat profile                   : Layer 3\nMode                             : Joint stereo\nMode extension                   : MS Stereo\nCodec ID                         : 55\nCodec ID/Hint                    : MP3\nDuration                         : 1h 41mn\nBit rate mode                    : Constant\nBit rate                         : 192 Kbps\nChannel(s)                       : 2 channels\nSampling rate                    : 44.1 KHz\nCompression mode                 : Lossy\nStream size                      : 139 MiB (16%)\nAlignment                        : Aligned on interleaves\nInterleave, duration             : 719 ms (21.54 video frames)\nInterleave, preload duration     : 208 ms\nTitle                            : intruders\nWriting library                  : LAME3.98r\nEncoding settings                : -m j -V 4 -q 2 -lowpass 18.6 -b 192\n\n\nPoster:\n\n &lt;a href=&quot;\nhttp://i.imgur.com/gqIiS.jpg&quot; rel=&quot;nofollow&quot; target=&quot;_NEW&quot;&gt;\nhttp://i.imgur.com/gqIiS.jpg&lt;/a&gt;\n\n\nScreens:\n\n &lt;a href=&quot;\nhttp://i.imgur.com/9kTlk.png&quot; rel=&quot;nofollow&quot; target=&quot;_NEW&quot;&gt;\nhttp://i.imgur.com/9kTlk.png&lt;/a&gt;\n\n &lt;a href=&quot;\nhttp://i.imgur.com/GplDJ.png&quot; rel=&quot;nofollow&quot; target=&quot;_NEW&quot;&gt;\nhttp://i.imgur.com/GplDJ.png&lt;/a&gt;\n\n &lt;a href=&quot;\nhttp://i.imgur.com/NHGHK.png&quot; rel=&quot;nofollow&quot; target=&quot;_NEW&quot;&gt;\nhttp://i.imgur.com/NHGHK.png&lt;/a&gt;\n\n\nENJOY!","torrent":{"xt":"urn:btih:30cb5ccad1b4457be4a8af36c8bf4d0b983cd3a4","amp;dn":"Intruders+2011+DVDSCR+READNFO+XviD-SiC","amp;tr":["udp%3A%2F%2Ftracker.openbittorrent.com%3A80","udp%3A%2F%2Fopen.demonii.com%3A1337","udp%3A%2F%2Ftracker.coppersurfer.tk%3A6969","udp%3A%2F%2Fexodus.desync.com%3A6969"],"infoHash":"30cb5ccad1b4457be4a8af36c8bf4d0b983cd3a4","infoHashBuffer":{"type":"Buffer","data":[48,203,92,202,209,180,69,123,228,168,175,54,200,191,77,11,152,60,211,164]},"announce":[],"urlList":[]}}